<?xml version="1.0" encoding="UTF-8"?>
<svg id="Calque_1" data-name="Calque 1" xmlns="http://www.w3.org/2000/svg" xmlns:xlink="http://www.w3.org/1999/xlink" viewBox="0 0 1159.69 1176.25">
  <defs>
    <style>
      .cls-1 {
        fill: url(#Dégradé_sans_nom_75-19);
      }

      .cls-1, .cls-2, .cls-3, .cls-4, .cls-5, .cls-6, .cls-7, .cls-8, .cls-9, .cls-10, .cls-11, .cls-12, .cls-13, .cls-14, .cls-15, .cls-16, .cls-17, .cls-18, .cls-19, .cls-20, .cls-21, .cls-22, .cls-23, .cls-24, .cls-25, .cls-26, .cls-27, .cls-28, .cls-29, .cls-30, .cls-31, .cls-32, .cls-33, .cls-34, .cls-35, .cls-36, .cls-37, .cls-38, .cls-39, .cls-40, .cls-41, .cls-42, .cls-43, .cls-44, .cls-45, .cls-46, .cls-47, .cls-48, .cls-49, .cls-50, .cls-51, .cls-52, .cls-53, .cls-54, .cls-55, .cls-56, .cls-57, .cls-58, .cls-59 {
        stroke-width: 0px;
      }

      .cls-2 {
        fill: url(#Dégradé_sans_nom_75-37);
      }

      .cls-3 {
        fill: url(#Dégradé_sans_nom_75-55);
      }

      .cls-4 {
        fill: url(#Dégradé_sans_nom_75-34);
      }

      .cls-5 {
        fill: url(#Dégradé_sans_nom_75-27);
      }

      .cls-6 {
        fill: url(#Dégradé_sans_nom_75-22);
      }

      .cls-7 {
        fill: url(#Dégradé_sans_nom_75-38);
      }

      .cls-8 {
        fill: url(#Dégradé_sans_nom_75-25);
      }

      .cls-9 {
        fill: url(#Dégradé_sans_nom_75-16);
      }

      .cls-10 {
        fill: url(#Dégradé_sans_nom_75-5);
      }

      .cls-11 {
        fill: url(#Dégradé_sans_nom_75-21);
      }

      .cls-12 {
        fill: url(#Dégradé_sans_nom_75-29);
      }

      .cls-13 {
        fill: url(#Dégradé_sans_nom_75-48);
      }

      .cls-14 {
        fill: url(#Dégradé_sans_nom_75-45);
      }

      .cls-15 {
        fill: url(#Dégradé_sans_nom_75-53);
      }

      .cls-16 {
        fill: url(#Dégradé_sans_nom_75-2);
      }

      .cls-17 {
        fill: url(#Dégradé_sans_nom_75-33);
      }

      .cls-18 {
        fill: url(#Dégradé_sans_nom_75-41);
      }

      .cls-19 {
        fill: url(#Dégradé_sans_nom_75-9);
      }

      .cls-20 {
        fill: url(#Dégradé_sans_nom_75-8);
      }

      .cls-21 {
        fill: url(#Dégradé_sans_nom_75-46);
      }

      .cls-22 {
        fill: none;
      }

      .cls-23 {
        fill: url(#Dégradé_sans_nom_75-51);
      }

      .cls-24 {
        fill: url(#Dégradé_sans_nom_75-49);
      }

      .cls-25 {
        fill: url(#Dégradé_sans_nom_75-40);
      }

      .cls-26 {
        fill: url(#Dégradé_sans_nom_75-6);
      }

      .cls-27 {
        fill: url(#Dégradé_sans_nom_75-18);
      }

      .cls-28 {
        fill: url(#Dégradé_sans_nom_75);
      }

      .cls-29 {
        fill: url(#Dégradé_sans_nom_75-44);
      }

      .cls-30 {
        fill: url(#Dégradé_sans_nom_75-35);
      }

      .cls-31 {
        fill: url(#Dégradé_sans_nom_75-31);
      }

      .cls-32 {
        fill: url(#Dégradé_sans_nom_75-10);
      }

      .cls-33 {
        fill: url(#Dégradé_sans_nom_75-23);
      }

      .cls-34 {
        fill: url(#Dégradé_sans_nom_75-24);
      }

      .cls-35 {
        fill: url(#Dégradé_sans_nom_75-11);
      }

      .cls-36 {
        fill: url(#Dégradé_sans_nom_75-3);
      }

      .cls-37 {
        fill: url(#Dégradé_sans_nom_75-32);
      }

      .cls-38 {
        fill: url(#Dégradé_sans_nom_75-15);
      }

      .cls-39 {
        fill: url(#Dégradé_sans_nom_75-17);
      }

      .cls-40 {
        fill: url(#Dégradé_sans_nom_75-26);
      }

      .cls-41 {
        fill: url(#Dégradé_sans_nom_75-30);
      }

      .cls-42 {
        fill: url(#Dégradé_sans_nom_75-28);
      }

      .cls-43 {
        fill: url(#Dégradé_sans_nom_75-7);
      }

      .cls-44 {
        fill: url(#Dégradé_sans_nom_75-20);
      }

      .cls-45 {
        fill: url(#Dégradé_sans_nom_75-42);
      }

      .cls-46 {
        fill: url(#Dégradé_sans_nom_75-13);
      }

      .cls-47 {
        fill: url(#Dégradé_sans_nom_75-39);
      }

      .cls-48 {
        fill: url(#Dégradé_sans_nom_75-54);
      }

      .cls-49 {
        fill: url(#Dégradé_sans_nom_75-50);
      }

      .cls-50 {
        fill: url(#Dégradé_sans_nom_75-52);
      }

      .cls-51 {
        fill: url(#Dégradé_sans_nom_75-36);
      }

      .cls-52 {
        fill: url(#Dégradé_sans_nom_75-57);
      }

      .cls-53 {
        fill: url(#Dégradé_sans_nom_75-56);
      }

      .cls-54 {
        fill: url(#Dégradé_sans_nom_75-12);
      }

      .cls-55 {
        fill: url(#Dégradé_sans_nom_75-4);
      }

      .cls-56 {
        fill: url(#Dégradé_sans_nom_75-43);
      }

      .cls-57 {
        fill: url(#Dégradé_sans_nom_75-47);
      }

      .cls-58 {
        fill: url(#Dégradé_sans_nom_75-58);
      }

      .cls-59 {
        fill: url(#Dégradé_sans_nom_75-14);
      }
    </style>
    <linearGradient id="Dégradé_sans_nom_75" data-name="Dégradé sans nom 75" x1="93.18" y1="769.05" x2="117.33" y2="769.05" gradientUnits="userSpaceOnUse">
      <stop offset="0" stop-color="#ffbb10"/>
      <stop offset=".52" stop-color="#fc7134"/>
      <stop offset="1" stop-color="#f7203c"/>
    </linearGradient>
    <linearGradient id="Dégradé_sans_nom_75-2" data-name="Dégradé sans nom 75" x1="75.85" y1="758.8" x2="87.04" y2="758.8" xlink:href="#Dégradé_sans_nom_75"/>
    <linearGradient id="Dégradé_sans_nom_75-3" data-name="Dégradé sans nom 75" x1="0" y1="588.13" x2="1103.99" y2="588.13" xlink:href="#Dégradé_sans_nom_75"/>
    <linearGradient id="Dégradé_sans_nom_75-4" data-name="Dégradé sans nom 75" x1="657.7" y1="316.24" x2="1148.96" y2="316.24" xlink:href="#Dégradé_sans_nom_75"/>
    <linearGradient id="Dégradé_sans_nom_75-5" data-name="Dégradé sans nom 75" x1="841.82" y1="414.98" x2="922.2" y2="414.98" xlink:href="#Dégradé_sans_nom_75"/>
    <linearGradient id="Dégradé_sans_nom_75-6" data-name="Dégradé sans nom 75" x1="803.84" y1="679.3" x2="1008.35" y2="679.3" xlink:href="#Dégradé_sans_nom_75"/>
    <linearGradient id="Dégradé_sans_nom_75-7" data-name="Dégradé sans nom 75" x1="950.44" y1="539.83" x2="1067.53" y2="539.83" xlink:href="#Dégradé_sans_nom_75"/>
    <linearGradient id="Dégradé_sans_nom_75-8" data-name="Dégradé sans nom 75" x1="832.93" y1="614.75" x2="964.78" y2="614.75" xlink:href="#Dégradé_sans_nom_75"/>
    <linearGradient id="Dégradé_sans_nom_75-9" data-name="Dégradé sans nom 75" x1="301.73" y1="455.38" x2="397.95" y2="455.38" xlink:href="#Dégradé_sans_nom_75"/>
    <linearGradient id="Dégradé_sans_nom_75-10" data-name="Dégradé sans nom 75" x1="202.62" y1="456.82" x2="295.7" y2="456.82" xlink:href="#Dégradé_sans_nom_75"/>
    <linearGradient id="Dégradé_sans_nom_75-11" data-name="Dégradé sans nom 75" x1="506.2" y1="469.65" x2="602.68" y2="469.65" xlink:href="#Dégradé_sans_nom_75"/>
    <linearGradient id="Dégradé_sans_nom_75-12" data-name="Dégradé sans nom 75" x1="407.28" y1="469.42" x2="500.51" y2="469.42" xlink:href="#Dégradé_sans_nom_75"/>
    <linearGradient id="Dégradé_sans_nom_75-13" data-name="Dégradé sans nom 75" x1="679.88" y1="469.27" x2="775.57" y2="469.27" xlink:href="#Dégradé_sans_nom_75"/>
    <linearGradient id="Dégradé_sans_nom_75-14" data-name="Dégradé sans nom 75" x1="612.06" y1="468.09" x2="679.36" y2="468.09" xlink:href="#Dégradé_sans_nom_75"/>
    <linearGradient id="Dégradé_sans_nom_75-15" data-name="Dégradé sans nom 75" x1="421.73" y1="704.91" x2="502.06" y2="704.91" xlink:href="#Dégradé_sans_nom_75"/>
    <linearGradient id="Dégradé_sans_nom_75-16" data-name="Dégradé sans nom 75" x1="172.3" y1="705.98" x2="248.03" y2="705.98" xlink:href="#Dégradé_sans_nom_75"/>
    <linearGradient id="Dégradé_sans_nom_75-17" data-name="Dégradé sans nom 75" x1="252.81" y1="716.55" x2="331.14" y2="716.55" xlink:href="#Dégradé_sans_nom_75"/>
    <linearGradient id="Dégradé_sans_nom_75-18" data-name="Dégradé sans nom 75" x1="554.37" y1="716.38" x2="630.05" y2="716.38" xlink:href="#Dégradé_sans_nom_75"/>
    <linearGradient id="Dégradé_sans_nom_75-19" data-name="Dégradé sans nom 75" x1="335.85" y1="716.36" x2="414.45" y2="716.36" xlink:href="#Dégradé_sans_nom_75"/>
    <linearGradient id="Dégradé_sans_nom_75-20" data-name="Dégradé sans nom 75" x1="718.66" y1="716.43" x2="796.49" y2="716.43" xlink:href="#Dégradé_sans_nom_75"/>
    <linearGradient id="Dégradé_sans_nom_75-21" data-name="Dégradé sans nom 75" x1="502.84" y1="706.19" x2="549.57" y2="706.19" xlink:href="#Dégradé_sans_nom_75"/>
    <linearGradient id="Dégradé_sans_nom_75-22" data-name="Dégradé sans nom 75" x1="679.19" y1="704.96" x2="713.1" y2="704.96" xlink:href="#Dégradé_sans_nom_75"/>
    <linearGradient id="Dégradé_sans_nom_75-23" data-name="Dégradé sans nom 75" x1="637.62" y1="715.36" x2="671.51" y2="715.36" xlink:href="#Dégradé_sans_nom_75"/>
    <linearGradient id="Dégradé_sans_nom_75-24" data-name="Dégradé sans nom 75" x1="637.54" y1="634.77" x2="671.61" y2="634.77" xlink:href="#Dégradé_sans_nom_75"/>
    <linearGradient id="Dégradé_sans_nom_75-25" data-name="Dégradé sans nom 75" x1="340.36" y1="862.1" x2="361.18" y2="862.1" xlink:href="#Dégradé_sans_nom_75"/>
    <linearGradient id="Dégradé_sans_nom_75-26" data-name="Dégradé sans nom 75" x1="363.82" y1="865.05" x2="380.6" y2="865.05" xlink:href="#Dégradé_sans_nom_75"/>
    <linearGradient id="Dégradé_sans_nom_75-27" data-name="Dégradé sans nom 75" x1="382.78" y1="865.05" x2="398.48" y2="865.05" xlink:href="#Dégradé_sans_nom_75"/>
    <linearGradient id="Dégradé_sans_nom_75-28" data-name="Dégradé sans nom 75" x1="409" y1="865.05" x2="425.07" y2="865.05" xlink:href="#Dégradé_sans_nom_75"/>
    <linearGradient id="Dégradé_sans_nom_75-29" data-name="Dégradé sans nom 75" x1="429.26" y1="864.85" x2="454.82" y2="864.85" xlink:href="#Dégradé_sans_nom_75"/>
    <linearGradient id="Dégradé_sans_nom_75-30" data-name="Dégradé sans nom 75" x1="459.25" y1="851.05" x2="464.18" y2="851.05" xlink:href="#Dégradé_sans_nom_75"/>
    <linearGradient id="Dégradé_sans_nom_75-31" data-name="Dégradé sans nom 75" x1="459.25" y1="865.05" x2="464.18" y2="865.05" xlink:href="#Dégradé_sans_nom_75"/>
    <linearGradient id="Dégradé_sans_nom_75-32" data-name="Dégradé sans nom 75" x1="467.23" y1="865.05" x2="482.92" y2="865.05" xlink:href="#Dégradé_sans_nom_75"/>
    <linearGradient id="Dégradé_sans_nom_75-33" data-name="Dégradé sans nom 75" x1="484.39" y1="872.93" x2="491.97" y2="872.93" xlink:href="#Dégradé_sans_nom_75"/>
    <linearGradient id="Dégradé_sans_nom_75-34" data-name="Dégradé sans nom 75" x1="503.02" y1="861.61" x2="520.4" y2="861.61" xlink:href="#Dégradé_sans_nom_75"/>
    <linearGradient id="Dégradé_sans_nom_75-35" data-name="Dégradé sans nom 75" x1="523.7" y1="865.05" x2="540.48" y2="865.05" xlink:href="#Dégradé_sans_nom_75"/>
    <linearGradient id="Dégradé_sans_nom_75-36" data-name="Dégradé sans nom 75" x1="542.66" y1="865.05" x2="558.36" y2="865.05" xlink:href="#Dégradé_sans_nom_75"/>
    <linearGradient id="Dégradé_sans_nom_75-37" data-name="Dégradé sans nom 75" x1="568.96" y1="865.05" x2="585.35" y2="865.05" xlink:href="#Dégradé_sans_nom_75"/>
    <linearGradient id="Dégradé_sans_nom_75-38" data-name="Dégradé sans nom 75" x1="587.61" y1="865.05" x2="605.22" y2="865.05" xlink:href="#Dégradé_sans_nom_75"/>
    <linearGradient id="Dégradé_sans_nom_75-39" data-name="Dégradé sans nom 75" x1="607.83" y1="865.05" x2="624.22" y2="865.05" xlink:href="#Dégradé_sans_nom_75"/>
    <linearGradient id="Dégradé_sans_nom_75-40" data-name="Dégradé sans nom 75" x1="627.25" y1="861.4" x2="644.55" y2="861.4" xlink:href="#Dégradé_sans_nom_75"/>
    <linearGradient id="Dégradé_sans_nom_75-41" data-name="Dégradé sans nom 75" x1="644.81" y1="862.76" x2="655.97" y2="862.76" xlink:href="#Dégradé_sans_nom_75"/>
    <linearGradient id="Dégradé_sans_nom_75-42" data-name="Dégradé sans nom 75" x1="657.77" y1="865.05" x2="673.83" y2="865.05" xlink:href="#Dégradé_sans_nom_75"/>
    <linearGradient id="Dégradé_sans_nom_75-43" data-name="Dégradé sans nom 75" x1="678.06" y1="851.05" x2="682.98" y2="851.05" xlink:href="#Dégradé_sans_nom_75"/>
    <linearGradient id="Dégradé_sans_nom_75-44" data-name="Dégradé sans nom 75" x1="678.06" y1="865.05" x2="682.98" y2="865.05" xlink:href="#Dégradé_sans_nom_75"/>
    <linearGradient id="Dégradé_sans_nom_75-45" data-name="Dégradé sans nom 75" x1="687.41" y1="861.4" x2="692.34" y2="861.4" xlink:href="#Dégradé_sans_nom_75"/>
    <linearGradient id="Dégradé_sans_nom_75-46" data-name="Dégradé sans nom 75" x1="695.39" y1="865.05" x2="711.08" y2="865.05" xlink:href="#Dégradé_sans_nom_75"/>
    <linearGradient id="Dégradé_sans_nom_75-47" data-name="Dégradé sans nom 75" x1="712.55" y1="872.93" x2="720.13" y2="872.93" xlink:href="#Dégradé_sans_nom_75"/>
    <linearGradient id="Dégradé_sans_nom_75-48" data-name="Dégradé sans nom 75" x1="731.18" y1="861.61" x2="748.56" y2="861.61" xlink:href="#Dégradé_sans_nom_75"/>
    <linearGradient id="Dégradé_sans_nom_75-49" data-name="Dégradé sans nom 75" x1="752.81" y1="865.26" x2="768.62" y2="865.26" xlink:href="#Dégradé_sans_nom_75"/>
    <linearGradient id="Dégradé_sans_nom_75-50" data-name="Dégradé sans nom 75" x1="781.32" y1="861.61" x2="798.63" y2="861.61" xlink:href="#Dégradé_sans_nom_75"/>
    <linearGradient id="Dégradé_sans_nom_75-51" data-name="Dégradé sans nom 75" x1="801.19" y1="865.05" x2="818.79" y2="865.05" xlink:href="#Dégradé_sans_nom_75"/>
    <linearGradient id="Dégradé_sans_nom_75-52" data-name="Dégradé sans nom 75" x1="822.18" y1="864.85" x2="838.2" y2="864.85" xlink:href="#Dégradé_sans_nom_75"/>
    <linearGradient id="Dégradé_sans_nom_75-53" data-name="Dégradé sans nom 75" x1="842.58" y1="861.4" x2="858.57" y2="861.4" xlink:href="#Dégradé_sans_nom_75"/>
    <linearGradient id="Dégradé_sans_nom_75-54" data-name="Dégradé sans nom 75" x1="861.97" y1="865.05" x2="878.74" y2="865.05" xlink:href="#Dégradé_sans_nom_75"/>
    <linearGradient id="Dégradé_sans_nom_75-55" data-name="Dégradé sans nom 75" x1="882.01" y1="865.26" x2="897.81" y2="865.26" xlink:href="#Dégradé_sans_nom_75"/>
    <linearGradient id="Dégradé_sans_nom_75-56" data-name="Dégradé sans nom 75" x1="902.19" y1="864.85" x2="912.87" y2="864.85" xlink:href="#Dégradé_sans_nom_75"/>
    <linearGradient id="Dégradé_sans_nom_75-57" data-name="Dégradé sans nom 75" x1="925.73" y1="857.81" x2="930.98" y2="857.81" xlink:href="#Dégradé_sans_nom_75"/>
    <linearGradient id="Dégradé_sans_nom_75-58" data-name="Dégradé sans nom 75" x1="925.89" y1="871.11" x2="930.73" y2="871.11" xlink:href="#Dégradé_sans_nom_75"/>
  </defs>
  <path class="cls-28" d="M98.83,751.95c-.75-1.6-1.87-2.89-3.49-3.65-.62-.29-1.32-.91-2.16.19.69,1.21,1.42,2.53,2.18,3.82,3.69,6.3,6.83,12.76,6.88,20.33.02,3.1.92,6.19,2.85,8.57,2.99,3.69,6.12,7.39,12.24,9.03-4.99-7.88-7.93-15.71-11.45-23.28-2.33-5.02-4.69-10.02-7.05-15.02Z"/>
  <path class="cls-16" d="M81.96,750.69c-.48-.85-2.1-1.41-3.02-1.05-3,1.19-4.03,4.4-2.1,6.96,2.73,3.62,5.57,7.16,8.4,10.7.3.38.9.51,1.38.77.18-.47.49-.86.4-1.14-1.57-5.26-3.19-10.5-4.81-15.74-.05-.18-.16-.34-.26-.51Z"/>
  <g>
    <path class="cls-22" d="M81.96,750.69c-.48-.85-2.1-1.41-3.02-1.05-3,1.19-4.03,4.4-2.1,6.96,2.73,3.62,5.57,7.16,8.4,10.7.3.38.9.51,1.38.77.18-.47.49-.86.4-1.14-1.57-5.26-3.19-10.5-4.81-15.74-.05-.18-.16-.34-.26-.51Z"/>
    <path class="cls-22" d="M98.83,751.95c-.75-1.6-1.87-2.89-3.49-3.65-.62-.29-1.32-.91-2.16.19.69,1.21,1.42,2.53,2.18,3.82,3.69,6.3,6.83,12.76,6.88,20.33.02,3.1.92,6.19,2.85,8.57,2.99,3.69,6.12,7.39,12.24,9.03-4.99-7.88-7.93-15.71-11.45-23.28-2.33-5.02-4.69-10.02-7.05-15.02Z"/>
    <path class="cls-36" d="M1103.51,798.29c-.32-.26-1.17-.27-1.51-.02-2.61,1.92-5.23,3.84-7.7,5.92-4.66,3.92-9.32,7.86-13.8,11.99-1.8,1.66-3.06,3.9-4.73,5.71-5.85,6.32-11.02,13.13-15.34,20.59-1.72,2.97-3.63,5.87-6.41,8.01-3,2.31-6.19,2.89-9.6.9-1.13-.66-2.24-1.35-4.01-2.42-2.53,5.02-3.11,10.53-5.77,15.54-1-3.5.31-6.82-1.03-10.26-1.83,1.24-3.46,2.2-4.93,3.35-5.85,4.58-11.62,9.26-17.49,13.82-6.17,4.79-12.41,9.48-18.64,14.2-7.28,5.53-14.57,11.05-21.87,16.56-9.89,7.46-19.75,14.96-29.68,22.36-8.1,6.03-16.26,12-24.45,17.91-6.65,4.8-13.39,9.47-20.09,14.2-10.91,7.69-21.71,15.56-32.77,23.02-15.19,10.24-30.55,20.24-45.94,30.19-3.02,1.95-6.38,3.49-9.76,4.71-6.19,2.24-11.27.42-14.94-4.94-1.18-1.73-2.21-3.57-3.35-5.33-.84-1.3-2.15-1.48-3.44-.53-.15.11-.31.22-.46.35-3.43,3.02-6.84,6.07-10.31,9.06-1.15.99-2.33,2.01-3.67,2.69-3.78,1.94-7.05.13-7.27-4.06-.11-2.07.25-4.17.38-6.26.04-.69,0-1.38,0-2.27-1.04-.05-1.85-.31-2.49-.08-2.82,1.02-5.51.94-8.41.09-1.95-.57-4.18-.35-6.27-.27-3.09.12-5.49,1.44-6.79,4.42-.92,2.1-1.91,4.17-2.91,6.23-.3.61-.76,1.14-1.37,2.02-.89-1.05-1.57-1.69-2.06-2.44-.84-1.27-1.41-2.76-2.4-3.88-.69-.78-1.88-1.51-2.87-1.53-1.59-.04-1.95,1.58-2.45,2.8-.14.35-.2.74-.26,1.11-.48,3.19-.94,6.38-1.41,9.52-.31.05-.51.14-.59.08-3.89-3.06-4.79-3.12-8.07.27-2.08,2.15-3.84,4.61-5.96,7.19-1.18-1.72-2.51-3.33-3.48-5.13-3.39-6.34-8.32-11.37-13.5-16.2-.49-.46-1.17-1.17-1.9-.19,4.32,11.96,4.58,13.53,2.91,17.77-2.03-.48-2.66-3.31-5.02-3.2-.32.43-.72.72-.74,1.03-.17,3.62-.83,7.18-1.26,10.77-.3,2.5-.88,4.29-3.26,5.51-3.25,1.68-5.84,4.27-8.35,6.92-1.18,1.25-2.52,2.36-3.63,3.67-3.08,3.65-7.04,5-11.69,4.91-2.28-.04-4.58.14-6.85.34-2.27.19-4.52.55-6.79.78-1.33.13-2.69.02-4,.22-6.57,1.02-13.12,2.2-19.7,3.15-9.44,1.37-18.71,3.53-27.88,6.11-1.73.48-3.21.59-4.98.14-7.57-1.9-15.23-3.5-22.81-5.38-14.05-3.48-28.32-5.88-42.51-8.64-3.54-.69-7.17-.91-10.75-1.38-3.21-.42-6.42-.79-9.6-1.37-5.24-.97-10.47-1.96-15.82-2.06-1.13-.02-2.26-.33-3.39-.49-1.5-.21-3.01-.55-4.52-.59-5.53-.12-10.93-1.78-16.51-1.29-.54.05-1.11-.26-1.68-.33-2.07-.25-4.17-.77-6.22-.65-5.96.37-11.77-1.01-17.64-1.5-6.6-.55-13.19-1.97-19.62-3.64-13.14-3.4-25.94-7.83-38.2-13.74-9.3-4.48-18.22-9.66-27.14-14.84-.41-.24-.63-.81-.98-1.28,3.44-1.64,6.55-3.49,8.94-6.3,2.98-3.49,4.46-7.55,3.95-12.16-.16-1.46-.61-2.99-2.34-3.49-.38.33-.8.53-.92.84-1.57,4.15-4.97,6.24-8.87,7.54-6.5,2.15-13.18,3.49-19.86,4.22-.77-.72-1.33-1.24-1.88-1.77-9.55-9.08-18.31-18.95-28.45-27.46-6.42-5.39-11.84-11.88-18.38-17.23-5.45-4.46-10.04-9.88-15.51-14.42-5.86-4.86-10.9-10.65-16.78-15.58-5.84-4.89-10.53-11.08-16.82-15.53-8.94-9.44-18.76-17.96-28.11-26.97-4.41-4.25-8.76-8.56-12.99-12.98-7.92-8.28-16.5-15.88-23.85-24.76-4.97-6.01-11.01-11.1-15.96-17.21-3.71-4.59-7.89-8.8-11.86-13.18-.26-.28-.47-.6-.69-.91-7.03-9.63-12.27-20.27-17.18-31.05-3.64-7.98-6.68-16.23-10.01-24.35-4.26-10.42-8.48-20.86-12.86-31.23-1-2.38-1.85-4.98-4.12-6.96-.9.68-1.67,1.2-2.36,1.8-.86.76-1.61,1.65-2.48,2.39-2.14,1.83-4.01,1.8-6.15.08-3.58-2.89-5.76-6.84-6.84-11.05-1.13-4.42-1.34-9.13,3.18-12.46,1.55-1.15,2.92-1.7,4.7-.76,2,1.05,4.02,2.06,6.43,3.29.04-2.07.37-3.8.06-5.42-1.02-5.43-1.73-10.88-2.33-16.37-.42-3.77-1.35-7.47-1.94-11.23-.53-3.38-.9-6.79-1.33-10.18-.47-3.77-.84-7.56-1.4-11.32-.99-6.57-2.11-13.13-3.14-19.7-.44-2.82-.87-5.64-1.16-8.47-.71-6.83.67-13.28,3.63-19.45,3.05-6.35,6.09-12.72,8.99-19.14,2.22-4.92,3.16-10.16,3.39-15.54.05-1.15-.14-2.37.21-3.42,1-2.98.91-6.02.97-9.07.02-1.14.23-2.27.36-3.41.25-2.07.52-4.14.75-6.22.15-1.33.2-2.66.36-3.98.24-2.07.54-4.14.79-6.21.18-1.51.31-3.03.49-4.54.21-1.89.45-3.77.66-5.66.17-1.51.28-3.03.45-4.54.21-1.89.49-3.76.69-5.65.17-1.51.25-3.04.41-4.55.23-2.08.51-4.14.74-6.22.15-1.33.21-2.66.37-3.98.24-2.07.53-4.14.78-6.21.18-1.51.32-3.03.5-4.54.2-1.7.46-3.39.64-5.09.18-1.7.29-3.41.47-5.12.2-1.89.49-3.77.68-5.65.13-1.33-.12-2.77.31-3.98.92-2.61.76-5.27.88-7.94.07-1.51.34-3.02.52-4.53.2-1.7.4-3.4.6-5.09.23-1.89.47-3.77.68-5.66.17-1.51.34-3.02.46-4.54.1-1.33-.03-2.7.21-4,1.51-8.23,2.88-16.5,4.71-24.67,4.2-18.66,9.96-36.87,17.9-54.27,7.21-15.82,15.29-31.22,25.14-45.63,6.24-9.13,12.6-18.17,19.71-26.66,2.08-2.48,4.3-4.87,6.19-7.49,3.8-5.28,8.2-10.11,12.75-14.64,15.97-15.91,31.18-32.61,48.26-47.41,4.9-4.24,9.28-9.03,14.26-13.24,7.14-6.02,13.78-12.64,20.47-19.17,3.57-3.49,7.43-6.54,11.5-9.39,7.99-5.59,16.3-10.64,24.9-15.23,3.2-1.71,6.35-3.51,9.46-5.37,6.7-4.03,13.32-8.21,20.06-12.18,11.84-6.97,23.83-13.68,35.58-20.79,11.12-6.74,22.79-12.39,34.34-18.29,10.22-5.22,20.7-9.88,31.45-13.84,9.13-3.36,18.42-6.34,27.76-9.06,10.61-3.09,21.37-5.56,32.35-7.07,5.46-.75,10.84-2.03,16.39-2.06.38,0,.79.05,1.14-.07,4.65-1.55,9.47-.92,14.22-1.07,2.1-.07,4.28.18,6.28-.3,6.44-1.54,12.95-.49,19.41-.76,5.43,1.59,11,.81,16.51,1.11,4.45.24,8.78-.42,13.05-1.37,10.18-2.26,17.26-8.48,17.6-21.49.16-6.31.06-12.63,0-18.94-.01-1.26-.39-2.52-.65-4.07-1.44.28-2.52.51-3.61.7-3.86.7-7.73.6-11.17-1.31-3.15-1.75-6.23-3.79-8.91-6.19-6.75-6.07-13.99-11.18-23.35-13.75-4.43,1.66-9.25,3.47-14.08,5.27-12.52,4.67-25.04,9.32-37.55,14.01-10.56,3.95-20.78,8.7-30.95,13.54-2.75,1.31-5.25,3.14-7.99,4.48-7.59,3.71-14.32,8.75-21.25,13.49-.55.38-1.16.67-2,1.16-.42-2.33-.35-4.17.17-6.06,1.28-4.7.73-9.51.52-14.26-.14-3.21-3.01-4.78-6.27-3.92-3.21.84-6.04,2.44-8.4,4.71-6.89,6.61-13.54,13.44-20.77,19.71-5.1,4.43-10.46,8.26-16.61,11.02-1.65.74-3.22.86-4.99.44-3.14-.74-6.32-1.54-9.52-1.77-7.95-.57-15.59,1.29-22.91,4.11-8.83,3.4-16.27,9.15-23.33,15.33-1.83,1.61-3.09,3.86-4.73,5.71-3.57,4.03-6.52,8.47-8.88,13.29-1.83,3.75-3.43,7.62-5.24,11.66-1.59.19-3.32.22-4.95.63-4.92,1.24-9.79,1.22-14.71,0-1.46-.36-3.04-.16-4.56-.3-2.08-.19-4.15-.46-6.23-.68-1.51-.16-3.03-.4-4.54-.43-3.06-.07-6.12-.02-9.18-.04-5.51-.03-10.61,1.39-15.08,4.61-2.78,2-5.34,4.3-7.98,6.48-3.96,3.28-7.99,6.47-11.83,9.89-3.41,3.04-6.71,6.2-10.18,9.2-6.35,5.48-11.79,11.97-18.48,17.11-18.4,18.4-36.78,36.81-55.2,55.17-3.72,3.71-6.54,7.95-8.31,12.88-2.26,6.29-4.5,12.58-6.71,18.89-1.91,5.45-4.43,10.63-8,15.13-3.31,4.17-6.68,8.31-10.56,12.04-7.44,7.16-14.66,14.56-21.97,21.86-.95.95-1.84,1.97-2.89,2.79-7.21,5.66-13.74,12.08-20.4,18.35-6.38,6.01-12.48,12.32-18.22,19.02-5.1,5.96-10.01,12.05-14.28,18.56-4.07,6.2-8.03,12.55-11.01,19.41-1.07,2.45-2.16,4.89-3.12,7.38-2.55,6.58-5.33,13.1-7.46,19.81-2.25,7.07-3.81,14.36-5.76,21.52-2.6,9.57-4.52,19.29-6.01,29.07-1.29,8.45-3.01,16.84-3.91,25.37-.79,7.55-2.58,14.98-3.32,22.56-.31,3.21-.93,6.39-1.45,9.58-.61,3.75-1.26,7.49-1.9,11.24-.83,4.87-1.57,9.77-2.57,14.61-.25,1.21-1.31,2.25-2,3.36,0,1.53,0,3.06,0,4.59,2.8,1.92,4.12,4.93,5.59,7.79,2.79,5.45,5.55,10.91,8.21,16.42,4.07,8.43,8.37,16.77,12,25.39,5.48,13.01,10.53,26.2,14.47,39.78,1.17,4.03,2.31,8.06,3.39,12.12,2.45,9.21,4.46,18.49,5.99,27.91.62,3.82.77,7.56.82,11.37.03,1.9-.9,3.3-2.38,4.34-2.12,1.49-4.46,2.16-7.06,1.5-.92-.23-1.82-.57-2.76-.74-1.23-.22-2.35.59-2.54,1.73-.06.38-.14.76-.13,1.14.42,10.47-.85,20.96.89,31.45.82,4.92,1.75,9.72,3.32,14.43,3.69,11.07,8.94,21.49,13.39,32.24,3.28,7.93,7.03,15.68,10.51,23.53,4.1,9.25,8.11,18.53,12.22,27.78,3.49,7.85,7.16,15.62,10.55,23.52,4.89,11.4,9.65,22.85,14.34,34.33,5.49,13.43,10.71,26.96,15.31,40.72,1.81,5.44,3.66,10.86,5.47,16.3.49,1.46.92,2.93,2.4,3.84.5.08,1.07.25,1.63.23,4.65-.16,8.15,2.46,10.93,5.5,4.01,4.39,6.67,9.75,7.88,15.68.53,2.61.68,5.3,1.31,7.87,1.88,7.58,3.44,15.29,6.03,22.64,3.03,8.62,6.45,17.13,11.5,24.91,3.44,5.3,6.88,10.53,11.41,14.98,2.32,2.28,4.54,4.66,6.93,6.87,1.81,1.67,3.77,3.21,5.75,4.68,5.4,4.03,11.45,6.81,17.69,9.3,5.75,2.3,11.63,3.46,17.81,3.63,11.43.32,22.89-.91,34.32.99,5.13.85,10.07,1.95,14.81,4.08,5.84,2.63,10.39,7.03,15.4,10.82,2.43,1.83,4.85,3.76,7.51,5.19,7.4,3.99,14.92,7.72,23.16,9.76,7.59,1.87,15.18,3.64,23.07,3.57,2.49-.02,4.98.08,7.46-.04,2.56-.12,4.91.41,7.14,1.68,3.48,1.98,6.96,3.98,10.52,5.82,15.46,7.97,30.98,15.83,46.41,23.85,4.91,2.55,9.68,5.37,14.41,8.24,6.86,4.15,13.71,8.32,20.38,12.75,3.34,2.22,6.43,2.07,9.66.27,1.29-.71,2.41-1.72,3.92-2.82.54,1.53,1.27,2.74,1.35,3.98.12,1.88-.18,3.79-.36,5.68-.15,1.51-.51,3-.54,4.51-.04,1.83,1.09,2.71,2.99,2.57.57-.04,1.14-.12,1.7-.21,4.32-.66,8.62-1.44,12.95-1.95,4.72-.56,9.47-.85,14.21-1.29.75-.07,1.49-.33,2.24-.43,1.69-.24,3.39-.59,5.09-.61,6.1-.08,12.09-1.82,18.23-1.28.37.03.79-.03,1.13-.18,2.56-1.08,5.26-.81,7.93-.88,4.95-.13,9.95.49,14.8-1.04.53-.17,1.14-.09,1.71-.07,11.43.48,22.87-.78,34.33.89,5.79.84,11.78.37,17.64,1.32,4.31.69,8.76.63,13.03,1.49,9.89,2,19.86,3.69,29.43,7.03,1.55.54,2.91.52,4.42-.06,6.16-2.36,12.58-2.69,19.13-2.79,7.24-.11,14.06,1.56,20.69,3.9,8.47,2.99,16.54,7.08,23.99,12.08,5.23,3.51,10.95,4.49,16.79,4.67,7.12.21,7.9-3.41,6.91-8.19-.3-1.48-1.13-2.87-.34-4.78.69-.45,1.6-1.14,2.59-1.65,5.29-2.75,10.93-4.58,16.7-5.91,7.61-1.75,15.29-3.17,22.91-4.87,5.85-1.3,10.08.02,13.44,4.78,3.21,4.54,6.82,8.69,10.79,12.58,2.34,2.3,5.14,3.22,8.22,3.52.82.08,1.7-.48,2.55-.75,0-.86.12-1.45-.02-1.98-1.76-6.92-.48-13.62,1.39-20.28.84-3,2.84-4.81,5.79-5.81,2.03-.69,4.05-1,6.18-.98,5.74.05,11.48.08,17.22.02,1.26-.01,2.52-.41,3.9-.65.13-1.63.31-2.94.32-4.25.04-4.02.11-8.04-.02-12.05-.14-4.3,1.47-7.88,4.35-10.85,8.25-8.5,16.9-16.59,24.56-25.66,3.44-4.08,7.41-7.74,11.33-11.39,3.2-2.98,6.64-5.72,10.06-8.46,1.33-1.07,2.87-1.88,4.34-2.76,1.67-1.01,3.28-.98,4.67.51,3.38,3.62,7.3,6.72,10.12,10.9,1.26,1.87,3.09,3.38,4.75,4.95.47.45,1.29.53,2.22.89,1.96-9.25-1.44-16.75-5.94-23.98-.39-.63-1.05-1.11-1.59-1.65-1.62-1.63-3.39-3.13-4.83-4.91-2.12-2.62-4.59-5.1-5.2-8.65.5-.53.81-1.15,1.28-1.31,7.44-2.43,14.82-5.07,22.37-7.09,4.73-1.26,9.51-.48,13.69,2.47,1.56,1.1,3.13,2.18,4.73,3.24.67.44,1.39.61,2.16-.46-.72-1.57-1.66-3.23-2.24-5.01-.52-1.6-.73-3.32-.9-5-.15-1.42.47-2.74,1.63-3.49,3.67-2.4,7.32-4.88,12.03-4.74,3.63.1,7.27-.1,10.9.05,3.33.14,6.47-.75,9.52-1.76,3.29-1.08,6.08-2.93,7.92-6.21,1.22-2.18,2.47-4.28,3.15-6.69,1.04-3.67,2.11-7.33,1.89-11.23-.1-1.73.11-3.35,1.34-4.82,5.51-6.56,10.92-13.21,16.39-19.81,4.13-4.99,8.56-9.75,12.4-14.96,8.83-11.96,17.69-23.89,25.61-36.51,7.51-11.97,14.83-24.06,21.36-36.57,7.34-14.06,14.21-28.38,20.82-42.8,4.76-10.4,8.77-21.15,13.06-31.77,1.28-3.18,2.4-6.43,3.5-9.68.14-.43-.09-1.22-.44-1.5ZM86.62,768.08c-.48-.26-1.08-.4-1.38-.77-2.84-3.54-5.67-7.08-8.4-10.7-1.93-2.56-.9-5.77,2.1-6.96.92-.36,2.54.2,3.02,1.05.09.17.2.33.26.51,1.62,5.24,3.24,10.49,4.81,15.74.08.28-.23.67-.4,1.14ZM105.09,781.21c-1.93-2.38-2.83-5.48-2.85-8.57-.04-7.57-3.19-14.03-6.88-20.33-.76-1.3-1.49-2.61-2.18-3.82.84-1.1,1.54-.48,2.16-.19,1.62.76,2.74,2.05,3.49,3.65,2.36,5,4.72,10,7.05,15.02,3.51,7.56,6.45,15.4,11.45,23.28-6.12-1.64-9.25-5.35-12.24-9.03Z"/>
  </g>
  <path class="cls-55" d="M1138.63,478.93c-1.1,2-2.38,3.92-3.77,5.74-1.81,2.38-3.7,4.75-6.98,6.31-.29-1.48-.67-2.52-.68-3.56-.06-6.12,0-12.24-.05-18.36-.01-1.71-.24-3.42-.42-5.12-.19-1.89-.53-3.77-.63-5.66-.12-2.1,0-4.21-.06-6.31-.09-4,.42-8.04-1-11.93.16-5.74-.69-11.4-1.27-17.08-.52-5.11-.9-10.23-1.36-15.35-.03-.37-.22-.73-.27-1.11-.62-4.52-1.27-9.03-1.81-13.56-.52-4.34-.53-8.79-1.51-13.02-.75-3.23-.53-6.46-1.1-9.64-.67-3.74-1.55-7.47-1.88-11.24-.59-6.83-1.5-13.6-2.34-20.4-.25-1.98-.85-3.61-1.92-5.26-4.75-7.38-9.41-14.82-14.07-22.26-5.47-8.73-10.88-17.5-16.34-26.23-4.14-6.64-8.33-13.24-12.46-19.89-4.63-7.46-9.17-14.97-13.83-22.41-4.86-7.76-9.85-15.45-14.71-23.21-7.39-11.8-14.73-23.64-22.09-35.46-2.32-3.72-4.66-7.44-6.98-11.16-4.63-7.45-9.05-15.05-13.96-22.32-2.97-4.4-6.45-8.51-10.11-12.37-6.72-7.07-13.74-13.85-20.64-20.74-.95-.95-1.84-1.96-2.88-2.79-5.49-4.42-10.96-8.85-16.53-13.16-9.67-7.48-19.83-14.28-30.45-20.32-8.96-5.1-18.13-9.88-27.44-14.31-8.95-4.26-18.07-8.27-27.36-11.71-10.02-3.71-20.32-6.63-30.51-9.88-11.12-3.55-22.46-5.9-34.14-6.45-.76-.04-1.51-.23-2.26-.33-2.07-.26-4.14-.71-6.22-.72-12.24-.06-24.48-.03-36.72-.01-1.53,0-3.16-.19-4.56.27-3.01.99-6.04.77-9.09.81-2.29.03-4.59.06-6.89.02-1.99-.04-3.82.48-5.41,1.6-2.16,1.51-4.49,2.77-5.88,5.29-1.27,2.3-3.09,4.31-4.79,6.61-.65-.21-1.37-.39-2.06-.66-6.74-2.72-13.79-3.03-20.83-2.15-2.84.36-5.65.9-8.5.77-3.72-.18-7.14.77-10.62,1.94-10.78,3.61-16.33,15.44-15.46,24.3.41,4.18,1.67,8.22,4.09,11.79,3.57,5.27,8.11,9.52,13.1,13.46,11.78,9.31,25.22,14.99,39.58,18.7,11.09,2.86,22.41,4.29,33.87,4.52,2.16.04,3.99.51,5.91,1.67,7.51,4.55,15.13,8.91,22.76,13.25,14.11,8.02,27.66,16.93,41.26,25.77,10.72,6.96,21.2,14.3,31.79,21.46,2.06,1.39,4.18,2.68,6.2,4.12,10.4,7.41,20.78,14.86,31.17,22.28,8.38,5.98,16.78,11.94,25.14,17.94,10.07,7.22,20.1,14.5,30.18,21.71,4.65,3.33,9.5,6.4,14.03,9.88,2.95,2.27,6.11,3.95,9.65,4.82,1.81.44,3.87.76,5.62.33,6.47-1.59,12.98-3.12,18.62-7.08,2.43-1.7,5.14-3.18,8.51-3.8.17,1.63.4,2.92.41,4.21.05,4.97,0,9.95.04,14.92,0,1.53-.06,3.1.25,4.57,1.57,7.27,2.98,14.58,5.58,21.57,2.13,5.72,4.4,11.39,6.59,17.09,1.16,3.03,2.19,6.11,3.44,9.1,3.82,9.1,10.36,16.02,18.26,21.58,5.65,3.98,11.07,8.13,15.71,13.26.9.99,1.89,1.92,2.62,3.02,5.56,8.33,7.88,17.69,8.3,27.54.28,6.71-1.18,13.25-2.7,19.74-.78,3.33-1.79,6.6-2.8,10.28,4.56,8.6,8.96,17.52,13.94,26.11,6.42,11.08,13.72,21.57,23.12,30.44,1.53,1.44,2.98,2.97,4.47,4.46,2.3,2.29,4.54,4.59,7.61,5.99,3.04,1.38,4.43,4.11,4.59,7.4.1,1.91.14,3.83,0,5.74-.22,3,.69,5.64,2.13,8.19,2.41,4.23,5.96,5.2,10.07,2.69.82-.5,1.54-1.19,2.42-1.52.98-.37.93-2.16,2.7-1.65-.1,1.91-.09,3.81-.33,5.69-.61,4.9-1.57,9.77-1.93,14.68-.4,5.31-1.81,10.54-1.33,15.93.07.73-.28,1.49-.38,2.25-.24,1.88-.66,3.78-.62,5.66.18,8.95-.8,17.95,1.06,26.85.66,3.16.97,6.39,1.62,9.56.21,1,.56,2.29,2.1,2.29,1.37-.95.85-2.4.93-3.66.45-6.65.83-13.3,1.28-19.95.05-.75.36-1.48.48-2.23.21-1.31.41-2.63.54-3.95.47-4.73.75-9.49,1.42-14.2.89-6.21,2.02-12.38,3.15-18.55,1.37-7.48,2.76-14.97,4.33-22.41,1.93-9.16,4.69-18.1,7.81-26.92.94-2.66,1.25-5.55,2.81-8v-3.44c-4.54.93-8.06,3.22-10.34,7.38Z"/>
  <path class="cls-10" d="M852.73,476.32c6.76,5.92,14.32,7.73,22.79,4.84,4.42-1.51,8.65-3.57,13.78-5.72,3.36,5.43,9.23,4.73,14.75,4.38,5.74-.36,11.9,1.79,17.93-2.19-3.33-8.34-6.23-16.39-9.73-24.16-3.95-8.79-2.36-16.7,2.61-24.39,2.55-3.95,5.09-7.9,7.34-11.41-.41-6.72-4.39-10.89-7.65-15.36-2.38-3.25-5.84-3.37-8.76-.23-2.59,2.78-4.78,5.94-7.56,9.45-1.47-1.29-2.61-2.29-3.78-3.32,3.47-4.4,6.22-8.77,9.83-12.26,7.23-7.02,8.44-15.58,7.86-24.94-.65-10.44-6.1-17.71-15.79-21.3-4.56-1.69-9.16-2.02-13.93-2.21-19.84-.78-31.61,12.8-29.92,31.7.3,3.38,1.19,6.76,2.23,10.01,1.43,4.47,3.26,8.82,5.04,13.54-2.02,2.34-3.81,4.74-5.92,6.81-8.47,8.3-12.81,18.13-11.92,30.16.32,4.29.36,8.65,0,12.93-.87,10.02,3.6,17.37,10.8,23.68ZM883.83,368.44c6.21-3.25,8.77,6.79,8.61,7.5-.49,2.32-5.62,10.9-6.46,13.14-.63-.28-4.81-7.37-5.44-7.65,0-2.05-1.74-5.99-1.76-8-.04-5.64,1.76-4.1,5.04-4.99ZM870.88,424.4c2.61,6.58,6.64,21.53,9.67,29.19-2.12,1.67-3.08,2.55-4.16,3.24-2.93,1.86-10.44-.97-10.51-4.07-.17-7.22,3.58-20.84,5-28.36Z"/>
  <path class="cls-26" d="M818.83,558.17c-5.52-4.14-12.29-1.9-14.52,4.35-1.16,3.23-.03,5.7,1.95,8.21,7.63,9.68,15.27,19.36,22.69,29.21,11.25,14.95,22.34,30.03,33.46,45.08,9.35,12.66,18.56,25.42,28,38.01,3.76,5.02,5.35,10.42,5.24,16.69-.23,13.66-.07,27.32-.07,40.99,0,11.08,0,22.17,0,34.63-5.11,2.4-9.26,4.48-13.51,6.31-8.21,3.54-16.53,6.83-24.71,10.45-6.29,2.78-8.3,5.18-6.98,7.58,2.14,3.87,5.96,2.69,9.16,2.7,29.89.1,59.77.07,89.66.03,2.54,0,5.14-.16,7.6-.72.95-.22,2.06-1.69,2.24-2.73.18-1.05-.38-2.9-1.19-3.33-5.61-3.03-11.24-6.11-17.13-8.54-8.27-3.42-16.22-7.31-23.47-11.58-.43-2.14-.89-3.37-.89-4.61-.07-24.34-.02-48.67-.17-73.01-.04-5.89,2.16-10.68,5.55-15.29,11.35-15.41,22.39-31.06,33.87-46.37,16.33-21.77,32.94-43.33,49.43-64.98.77-1.01,1.64-1.98,2.24-3.09,2.73-5.06-.01-10.9-5.64-11.63-2.89-.38-5.87-.07-8.82-.07-2.39,3.1-4.57,5.71-6.51,8.48-7.07,10.12-13.92,20.4-21.1,30.43-10.15,14.19-20.55,28.19-30.79,42.31-7.74,10.68-15.29,21.49-23.15,32.07-1.37,1.84-3.87,2.83-6.05,4.35-2.06-1.9-3.89-3.12-5.11-4.78-7.33-9.92-14.59-19.9-21.75-29.95-17.53-24.6-34.96-49.27-52.54-73.84-1.96-2.74-4.31-5.37-6.99-7.38Z"/>
  <g>
    <path class="cls-22" d="M1021.5,556.84c2.14,2.5,4.14,5.12,6.44,7.46,2.96,3.01,6.15,5.8,9.27,8.66.3.27.78.58,1.13.53,1.55-.25,3.2-.39,4.54-1.1.35-.18.15-2.53-.48-3.35-5.05-6.46-11.17-11.48-20.9-12.21Z"/>
    <path class="cls-22" d="M1007.38,496.7c-1.22-.75-3.53,1.85-3.73,4.22-.64,7.65-.92,15.26,3.36,22.59,4.76-7.4,4.3-15.32,3.41-23.2-.15-1.33-1.74-2.81-3.05-3.61Z"/>
    <path class="cls-22" d="M974.64,521.1c-1.6-.71-3.91.21-6.78.46,1.98,7.03,6.27,9.15,10.64,10.56,4.01,1.29,7.96,4.44,13.48,2.32-4.7-6.8-10.8-10.45-17.34-13.33Z"/>
    <path class="cls-22" d="M1047.98,525.03c-1.62-1.03-3.74-1.7-5.66-1.74-2.01-.04-4.17.58-6.04,1.42-4.92,2.21-9.15,5.48-13.51,8.8,1.1.99,1.76,1.99,2.16,1.89,6.47-1.51,12.97-2.94,19.32-4.88,3.13-.96,5.1-4.62,3.72-5.49Z"/>
    <path class="cls-43" d="M1051.14,500.9c-16.7-17.98-38.15-23.31-61.86-15.37-9.34,3.13-17.89,8.33-24.36,15.93-5.53,6.49-10.18,13.79-11.84,22.37-1.75,9.04-4.03,17.8-1.56,27.51,2.16,8.49,5.79,15.93,10.13,23.2,1.72,2.88,4.41,5.33,9.35,3.99,4.81-6.65,9.93-13.92,15.25-21.04,7.99-10.69,16.9-10.32,24.37,1.01,1.13,1.72,1.68,3.83,2.49,5.73-1.41,3.04-2.33,5.96-3.97,8.37-4.75,6.99-9.79,13.79-15.2,21.33,1.5,1.34,2.06,2.26,2.76,2.39,9.28,1.71,18.57,2.16,27.76-.49,19.96-5.76,32.67-19.09,39.64-38.32,7.85-21.64,1.68-40.85-12.95-56.6ZM978.5,532.12c-4.36-1.4-8.66-3.53-10.64-10.56,2.86-.25,5.18-1.16,6.78-.46,6.54,2.89,12.65,6.53,17.34,13.33-5.52,2.12-9.47-1.03-13.48-2.32ZM1007.02,523.51c-4.28-7.33-4-14.94-3.36-22.59.2-2.36,2.51-4.96,3.73-4.22,1.3.8,2.89,2.28,3.05,3.61.89,7.88,1.35,15.8-3.41,23.2ZM1042.88,572.4c-1.34.7-2.99.85-4.54,1.1-.34.05-.83-.25-1.13-.53-3.11-2.86-6.3-5.65-9.27-8.66-2.3-2.34-4.31-4.96-6.44-7.46,9.72.73,15.85,5.75,20.9,12.21.64.82.84,3.16.48,3.35ZM1044.25,530.52c-6.35,1.94-12.85,3.37-19.32,4.88-.4.09-1.06-.9-2.16-1.89,4.36-3.33,8.59-6.59,13.51-8.8,1.87-.84,4.03-1.45,6.04-1.42,1.92.03,4.04.71,5.66,1.74,1.38.88-.59,4.54-3.72,5.49Z"/>
  </g>
  <path class="cls-20" d="M832.93,565.88c1.07,2.14,1.91,4.53,3.33,6.51,5.94,8.26,12.2,16.31,18.09,24.6,14.99,21.1,29.84,42.3,44.8,63.42,1.21,1.71,2.66,3.47,4.42,4.48,1.19.68,3.23.44,4.65-.06,1.03-.36,1.75-1.77,2.49-2.79,17.87-24.73,35.73-49.48,54.06-74.86-3.67-8.56-10.56-15.01-15.14-22.99-38.34,0-76.21,0-114.08.05-.68,0-1.36.82-2.64,1.64Z"/>
  <path class="cls-19" d="M343.47,528.04c.05-29.29,0-58.58.04-87.87,0-4.25.05-8.52.38-12.76.27-3.45,3.24-5.53,6.72-5.14,3.06.34,4.92,2.17,5.18,5.07.38,4.23.41,8.5.41,12.75.03,30.35-.05,60.71.08,91.06.02,4.62-1.34,9.66,3.04,14.46,11.85,1.32,24.28,2.22,36.24-.42,3.32-5.9,2.2-11.32,2.22-16.53.1-30.89-.05-61.77.12-92.66.04-8.06-.92-15.84-3.13-23.58-3.46-12.13-15.23-21.65-27.77-22.76-7.72-.68-14.57,2.01-21.96,4.92-3.54-9.67.53-19.67-3.41-29.19-12.82-1.98-25.24-2.04-37.17-.11-3.66,5.19-2.56,10.13-2.59,14.79-.12,20.23-.05,40.47-.05,60.71,0,30.35-.05,60.71.06,91.06.02,4.62-1.29,9.7,3.42,13.99,11.56,1.2,23.62,1.53,37.65-.6.21-6.69.51-11.94.52-17.19Z"/>
  <path class="cls-32" d="M274.79,542.13c7.34-4.34,13.38-10.71,16.25-19.15,5.44-15.95,5.15-32.44,3.92-48.94-.29-3.94-3.39-6.89-7.45-7.09-7.97-.39-15.97-.52-23.95-.29-2.95.08-5.86,1.46-9.35,2.4-.12,6.48-.24,12.3-.32,18.12-.08,5.86-.07,11.72-.23,17.58-.08,2.86-1.25,5.26-4.34,5.83-2.87.53-6.72-2.04-7.17-5.07-.61-4.18-.92-8.45-.93-12.68-.09-21.32-.04-42.63-.04-63.95,0-5.86-.14-11.73.1-17.58.11-2.6.56-5.36,1.63-7.69,1.15-2.51,3.81-4.16,6.55-3.26,1.62.54,3.7,2.7,3.82,4.27.55,6.89.34,13.83.66,20.74.17,3.58.86,7.13,1.45,11.74,12.82,1.05,24.86,1.38,37.31-.09,1.25-2.34,2.01-3.21,2.18-4.18,2.65-15.04-1.89-29.53-3.69-44.21-.36-2.97-2.34-6.01-4.27-8.47-7.61-9.72-17.74-15.09-30.05-15.96-5.3-.37-10.66.14-15.98-.14-15.42-.8-24.91,8.15-31.92,20.12-4,6.83-6.33,14.6-6.31,22.84.06,34.11-.21,68.21.13,102.32.13,13.49,5.78,24.24,17.57,32.05,7.47,4.94,15.63,6.99,23.88,7.95,10.73,1.25,21.31-1.75,30.54-7.2Z"/>
  <path class="cls-35" d="M600.69,486.89c-12.92-1.87-25.33-2.11-37.31-.03-3.6,5.85-2.04,11.3-2.47,16.48-.31,3.69-.48,7.39-1.04,11.04-.36,2.33-5.15,3.42-6.61,1.51-1.58-2.07-3.68-4.31-3.99-6.68-1.52-11.49-2.04-23.02.46-34.89,17-2.94,33.57.38,51.53-2.42.51-4.16,1.15-7.24,1.2-10.32.15-9.05-.18-18.11.14-27.15.29-8.26-2.01-15.89-5.46-23.06-4.78-9.94-12.08-17.64-23.42-19.89-15.34-3.04-30.14-3.16-44.94,4.32-10.72,5.42-16.69,13.6-18.46,24.26-2.15,13-3.83,26.11-4.08,39.49-.36,18.7,1.73,37.15,4.02,55.49,1.77,14.24,9.87,25.87,24.56,30.82,15.68,5.29,24.89,5.23,40.46-.44,5.93-2.16,12.66-4.07,16.18-9.68,9.27-14.76,14.25-30.57,9.23-48.86ZM548.58,430.08c.07-1.94,1.12-4.05,2.28-5.68,1.44-2.02,3.23-4.76,6.19-3.3,1.56.77,3.1,3.04,3.3,4.79.48,4.12.15,8.33.15,12.5.22,0,.44.01.65.02-.3,3.63-.3,7.32-.98,10.87-.55,2.9-2.97,4.02-5.88,3.91-2.92-.11-5.33-1.38-5.51-4.37-.37-6.23-.42-12.51-.21-18.75Z"/>
  <path class="cls-54" d="M407.52,513.71c2.83,14.3,9.41,25.89,23.63,31.69,14.48,5.91,29.23,4.4,43.58.21,5.29-1.54,11.12-5.31,14.13-9.79,9.72-14.47,14.34-30.46,10.03-47.83-12.72-3.12-25.84-3.15-39.73.1-.36,8.64-.49,16.59-1.19,24.49-.14,1.55-2.39,3.9-3.87,4.07-1.58.18-3.78-1.46-5.02-2.9-1.32-1.54-2.13-3.71-2.61-5.73-1.43-5.94-.42-24.79,1.74-33.84,3.26-.34,6.84-.97,10.43-1.02,10.63-.16,21.28.09,31.91-.21,2.94-.08,5.84-1.49,9.51-2.49,0-15.45.67-30.34-.17-45.15-1.03-18.07-17.16-33.84-35.27-35.34-6.87-.57-13.85-.59-20.72-.05-19.74,1.54-36.41,19.45-36.54,39.24-.17,26.06-.03,52.12-.02,78.18,0,2.13-.22,4.31.18,6.37ZM446.36,429.43c.35-4.39,3.05-7.65,8.29-9.15,1.03,1.47,3.04,3.04,3.14,4.71.42,7.79.49,15.62.3,23.42-.07,2.87-2.22,4.53-5.21,4.79-3.55.31-6.48-1.62-6.61-5.01-.23-6.25-.41-12.55.09-18.77Z"/>
  <path class="cls-46" d="M727.56,516.22c-1.65.11-4.18-1.41-4.99-2.93-1.18-2.22-1.39-5.05-1.61-7.66-.41-4.69-.53-9.4-.86-15.68-14.34-1.23-26.79-2.58-38.94.51-3.9,20.47,1.18,36.63,14.31,48.47,5.84,5.26,12.96,6.61,20.14,8.72,16.88,4.96,31.26-1.09,45.46-8.77,1.33-.72,2.36-2.1,3.37-3.32,15-18.04,15.58-51.73-2.86-68.52-8.64-7.87-16.79-16.18-26.82-22.42-4-2.49-7.67-5.7-10.88-9.16-1.61-1.74-2.4-4.75-2.51-7.22-.08-1.73,1.25-3.95,2.63-5.22,1.65-1.52,5.85-.22,7,1.9.99,1.82,1.76,3.8,2.31,5.79.81,2.93,1.34,5.94,2.06,9.29,10.77,1.64,20.84,1.08,30.85.69,5.67-.22,9.09-3.81,8.7-9.36-.99-14.35-5.56-27.07-18.67-35-15.21-9.2-31.51-8.67-47.67-3.83-15.36,4.6-25.33,14.36-27.66,31.37-.85,6.2.86,11.65,1.84,17.15,1.88,10.55,6.24,20.15,16.35,26.09,5.45,3.2,10.53,7.17,15.35,11.3,4.83,4.14,9.55,8.56,13.54,13.48,4.86,6,7.32,13.09,4.18,20.79-.66,1.62-2.98,3.42-4.64,3.53Z"/>
  <path class="cls-59" d="M612.1,398.93c-.05,46.21-.06,92.43.03,138.64,0,2.48.99,4.97,1.61,7.83,3.22.46,5.77,1.13,8.32,1.15,9.51.04,19.02-.13,28.61-.22,4.08-6.89,2.91-12.32,2.93-17.5.11-28.68,0-57.37.11-86.05.02-5.19-1.13-10.61,1.98-16.1,7.17-2.13,14.65-4.35,22.27-6.62,2.12-8.4,1.32-16.33.98-24.2-.17-4.05-3.42-6.65-7.82-5.89-5.15.9-10.16,2.66-16.36,4.36-5.27-4.33-12.53-5.18-20.02-4.48-7.18.67-14.84-2.09-21.73,2.73-.33,2.21-.92,4.28-.92,6.36Z"/>
  <path class="cls-38" d="M501.96,773.91c-.39-1.67-.98-3.31-1.52-4.94-5.05-15.18-9.72-30.49-15.29-45.48-3.66-9.85-4.11-19.05-.16-28.95,4.32-10.82,7.57-22.07,11.29-33.14.99-2.93,1.68-5.84-1.43-8.92-4-1.54-8.8-.73-13.48-.79-18.38-.25-15.37.12-20.69,14.85-1.97,5.46-2.93,11.4-7.44,18.37,0-10.48.14-18.68-.04-26.87-.18-8.53.84-17.15-.94-26.18-10.36-1.36-19.94-2.45-29.72.77-.25,3.6-.61,6.59-.64,9.58-.08,8.66-.03,17.31-.03,25.97,0,32.46-.05,64.93.06,97.39.01,4.17-1.27,8.71,2.56,12.82,8.93.92,18.2,1.76,27.76-.78,2.4-14.56-.21-28.84,1.78-44.65,3.37,7.4,5.13,13.53,6.88,19.7,1.99,7.06,4.24,14.05,6.61,21,.84,2.45,2.38,5,5.34,5.06,8.63.16,17.27.09,25.91-.08,2.23-.04,3.73-2.5,3.21-4.72Z"/>
  <path class="cls-9" d="M205.83,662.14c.83-1.16,3.01-2.12,4.39-1.9,1.27.2,3.16,2.03,3.25,3.25.46,6.46.28,12.96.66,19.43.14,2.4,1.22,4.75,1.9,7.24,10.45.72,20.25,1.43,31.21-.68.52-12.07,1.42-22.68-1.54-33.42-4.45-16.14-14.79-24.91-31.47-25.3-3.46-.08-6.94.17-10.39-.04-8.41-.52-14.89,2.9-20.76,8.75-6.52,6.51-10.17,14.58-10.35,23.17-.62,28.99-.54,58-.09,86.99.14,9.34,4.32,18.24,12.05,23.42,10.55,7.06,22.01,10.44,35.63,6.68,13.03-3.6,21.32-10.08,25.11-23.04,3.87-13.22,2.52-26.5,1.51-39.83-.05-.68-1.07-1.29-2.4-2.8-7.42,0-15.6-.12-23.78.08-1.98.05-3.94,1.13-6.61,1.95-.05,6.38-.06,12.39-.15,18.4-.06,3.89.04,7.81-.47,11.65-.18,1.33-1.76,3.05-3.08,3.51-2.23.77-4.67-.57-5.28-2.61-.97-3.23-1.38-6.74-1.4-10.14-.13-17.31-.07-34.63-.06-51.94,0-5.63-.12-11.26.16-16.88.1-2.04.79-4.31,1.95-5.95Z"/>
  <path class="cls-39" d="M253.1,749.71c.63,12.51,6.28,22.58,18.07,27.78,12.84,5.67,26.14,5.58,39.05.05,8.26-3.54,14.64-9.65,17.24-18.36,1.95-6.54,3.14-13.51,3.36-20.33.49-14.7.29-29.43.1-44.14-.11-8.29-2.37-16.16-5.77-23.71-3.98-8.82-10.56-14.28-19.86-17.25-8.12-2.6-16.24-3.08-24.3-1.37-18.46,3.91-27.87,15.96-28.05,35.02-.09,9.52-.02,19.04-.02,28.56h.04c0,11.25-.44,22.53.12,33.75ZM286.84,688.41c.02-2.57.15-5.19.71-7.68.21-.95,1.69-2.08,2.74-2.26,1.05-.18,2.9.39,3.34,1.21,1.39,2.59,3.19,5.44,3.23,8.22.28,18.98.19,37.96.14,56.94,0,3.56-1.23,6.73-3.86,9.28-1.43,1.39-5.03.75-5.44-1.13-.45-2.08-.83-4.22-.85-6.34-.09-9.92-.04-19.84-.04-29.76h-.01c0-9.49-.04-18.98.03-28.47Z"/>
  <g>
    <path class="cls-22" d="M588.56,726.39c-.3,7.27-.16,14.56-.07,21.85.01,1.23.3,2.78,1.08,3.61,1.03,1.1,2.59,1.93,4.06,2.24.5.11,2.01-1.7,2.04-2.66.26-8.99.36-17.98.36-26.98,0-2.05-.57-4.1-1.04-7.2-5.26,2.44-6.29,5.79-6.43,9.14Z"/>
    <path class="cls-27" d="M629.78,677.77c-2.44-10.51-6.72-19.59-18.13-23.26-12.28-3.95-24.55-4.42-36.88-.5-7.49,2.38-12.41,7.89-15.6,14.64-3.21,6.8-3.3,14.01-.26,21.37,9.71.87,19,1.89,28.44-.83.59-3.42.8-6.45,1.73-9.25.43-1.28,2.27-2.09,3.47-3.11,1.06,1.26,2.93,2.46,3.02,3.78.36,5.12.14,10.27.14,16.47-3.77,1.64-6.47,2.92-9.25,3.99-4.43,1.71-8.89,3.33-13.37,4.91-8.35,2.96-13.73,8.85-16.51,17.09-1.08,3.21-1.82,6.65-2.02,10.03-.33,5.6.1,11.25-.17,16.86-.32,6.7,1.83,12.77,4.16,18.82,1.45,3.78,4.09,6.3,7.64,8.4,9.67,5.73,18.69,6.2,27.28-1.91.91-.86,2.04-1.47,3.03-2.17,2.23,1.99,4.03,4.8,6.44,5.51,5.52,1.61,18.81.38,26.14-1.56.28-3.06.84-6.42.85-9.77.07-27.69.04-55.37.03-83.06,0-2.16.3-4.41-.18-6.47ZM595.67,751.43c-.03.96-1.54,2.77-2.04,2.66-1.47-.31-3.03-1.15-4.06-2.24-.77-.83-1.06-2.37-1.08-3.61-.09-7.28-.23-14.57.07-21.85.14-3.35,1.16-6.71,6.43-9.14.47,3.1,1.04,5.15,1.04,7.2,0,8.99-.1,17.99-.36,26.98Z"/>
  </g>
  <path class="cls-1" d="M408.93,765.88c6.75-12.86,6.2-26.38,4.04-40.5-10.55-1.66-20.35-1.32-31.04-.28-2.34,6.09-1.22,11.33-1.6,16.42-.25,3.42-.39,6.9-1.24,10.19-.31,1.21-2.48,2.66-3.83,2.68-1.35.02-3.31-1.3-3.95-2.57-.92-1.83-1.22-4.14-1.23-6.25-.09-19.05-.07-38.11-.04-57.16,0-1.72.13-3.47.43-5.16.57-3.22,3.78-5.58,6.52-4.88,2.58.66,3.1,2.79,3.19,5,.15,3.89,0,7.8.24,11.68.15,2.47.8,4.91,1.29,7.74,10.79,1.18,20.9,1.96,31.83-.46.87-8.58,1.51-16.78.03-24.8-1.83-9.91-7.61-17.41-16.92-21.56-14.16-6.31-28.49-6.17-42.76-.12-4.55,1.93-7.74,5.16-10.3,9.44-5.06,8.46-6.61,18-7.12,27.31-.92,16.84-.7,33.78-.06,50.64.29,7.65,1.64,15.64,6.26,22.19,5.7,8.07,13.53,12.37,23.43,14.79,14.49,3.56,26.37-1.12,37.95-8.41,2.07-1.3,3.71-3.69,4.88-5.93Z"/>
  <g>
    <path class="cls-22" d="M756.66,678.67c-1.82-.25-4.12,2.65-3.71,4.36,1.23,5.15,3.17,9.74,9.73,10.23-.39-4.21-.81-8.4-1.91-12.41-.29-1.06-2.62-1.97-4.12-2.18Z"/>
    <path class="cls-44" d="M778.92,707.49c-5.57-4.59-13.09-7.11-16.23-14.24-6.57-.49-8.5-5.08-9.73-10.23-.41-1.71,1.88-4.61,3.71-4.36,1.5.21,3.82,1.12,4.12,2.18,1.1,4,1.52,8.2,1.91,12.41,8.4-.04,17.05.1,25.7-.12,2.39-.06,4.76-1.17,7.29-1.84.2-3.61.61-6.61.48-9.6-.64-14.66-12.93-28.16-27.69-29.76-11.63-1.26-23.12-1.06-33.86,5.55-8.87,5.46-14.15,12.29-13.87,22.93.08,3.03.13,6.06.01,9.08-.27,6.93,2.27,12.7,7.2,17.42,5.91,5.66,11.32,11.78,18.28,16.42,4.95,3.3,8.81,8.24,13.14,12.48,2.32,2.27,3.05,5.17,2.97,8.3-.1,3.82.65,8.06-3.82,10.17-2.75,1.3-5.58-3.05-6.33-9.54-.44-3.75.89-7.84-2.44-11.8-9.71-1.27-19.81-1.64-30.55.38-1.72,11.55.9,21.73,5.2,31.65.5,1.15,1.56,2.05,2.36,3.07,5.65,7.19,13.37,10.13,22.08,12.31,14.43,3.6,26.3-1.5,37.8-8.94,1.72-1.11,2.93-3.15,4.11-4.93,4.71-7.13,5.55-15.06,5.73-23.49.31-15.14-6.18-26.11-17.56-35.5Z"/>
  </g>
  <path class="cls-11" d="M549.45,766.66c.63-6.16-1.15-10.97-7.47-13.15v-67.56q7.39-6.27,7.44-15.19c.01-2.59.27-5.25-.21-7.76-.37-1.94-1.25-4.7-2.69-5.35-4.45-2.03-4.8-5.46-5-9.57-.25-5.43,1.58-11.22-2.27-16.55-9.33-.78-18.61-1.89-28.34,1.02-.43,7.64-.84,14.86-1.23,21.82-2.48,1.83-4.52,3.34-6.84,5.06v21.09c5.65,2.45,8.26,6.81,7.45,13.13-.33,2.55-.05,5.18-.05,7.77,0,18.15,0,36.31,0,54.46,0,3.03-.01,6.05.1,9.07.22,6.14,3.01,10.45,8.63,13.33,10.16,5.2,19.81,4.26,29.82-1.23.21-3.61.3-7.02.64-10.41Z"/>
  <path class="cls-6" d="M679.25,695.75c0,23.78-.04,47.56.05,71.34.01,3.75-1.04,7.87,3.28,11.83,9.2-.55,19.41,1.93,29.71-1.59.31-2.56.79-4.66.79-6.77.04-43.67.05-87.34-.01-131.01,0-2.46-.73-4.91-1.18-7.75-10.44-1.72-20.24-1.24-31.75-.3-.34,4.79-.83,8.57-.84,12.36-.08,17.3-.04,34.59-.04,51.89Z"/>
  <path class="cls-33" d="M663.5,779.05c2.07-.01,4.13-.6,7.23-1.08.34-3.9.74-6.46.75-9.02.04-34.65.03-69.29.02-103.94,0-2.16,0-4.34-.24-6.48-.46-3.92-2.75-6.4-6.75-6.6-6.05-.31-12.12-.37-18.17-.14-6.21.24-8.4,2.49-8.56,8.95-.23,9.52-.11,19.05-.11,28.58,0,25.99-.04,51.97.04,77.96.01,3.75-1.02,7.9,3.36,11.61,6.91.06,14.67.2,22.43.16Z"/>
  <path class="cls-34" d="M670.3,645.61c1.67-7.72,1.87-14.32-.14-21.7-9.2-1.64-18.17-.77-27.07-.61-1.54.03-3.06,1.14-4.68,1.79-.72,7.1-2.06,13.82,1.47,21.18,9.78.21,19.51.93,30.43-.66Z"/>
  <path class="cls-8" d="M349.77,850.24h-9.4v23.71h9.19c7.26,0,11.63-5.24,11.63-12.15s-4.51-11.56-11.42-11.56ZM349.34,869.81h-3.84v-15.43h3.87c4.64,0,6.52,3.56,6.52,7.43,0,4.62-2.01,8-6.55,8Z"/>
  <path class="cls-40" d="M380.6,864.61c0-4.44-2.08-8.87-8.19-8.87-5.72,0-8.58,3.99-8.58,9.57,0,4.67,2.54,9.05,8.41,9.05s7.54-3.58,8.17-5.76h-4.93c-.47,1.08-1.05,1.9-3.11,1.9-2.45,0-3.57-2.18-3.57-4.4h11.75c.06-.51.06-.9.06-1.5ZM368.89,863.08c.2-2.19,1.15-3.82,3.51-3.82s3.23,1.74,3.26,3.82h-6.77Z"/>
  <path class="cls-5" d="M390.99,870.82c-1.84,0-3-.8-3.37-2.21h-4.84c.39,3.16,2.62,5.76,8.03,5.76s7.67-2.68,7.67-5.63c0-2.61-.84-4.65-6.78-6.03-2.89-.67-3.44-1.1-3.44-1.99,0-.8.53-1.52,2.16-1.52,2.32,0,2.76,1.24,2.91,1.9h4.69c-.15-2.41-1.98-5.36-7.38-5.36s-7.22,2.78-7.22,5.39.95,4.31,6.75,5.74c2.55.63,3.31,1.07,3.31,2.22,0,1.08-.66,1.73-2.48,1.73Z"/>
  <path class="cls-42" d="M424.83,869.35v-7.48c0-4.24-2.59-6.1-7.36-6.13-5.41-.03-7.37,2.53-7.64,5.69h4.69c.23-1.29.68-2.17,2.76-2.17,2.29,0,2.74,1.24,2.74,2.51v1.09h-2.54c-5.22,0-8.47,1.87-8.47,5.93,0,2.76,1.81,5.58,6.1,5.58,3.15,0,4.36-1.15,5-2.15,0,.45.11,1.39.25,1.74h4.71c-.1-.43-.24-2.9-.24-4.6ZM420.02,866.32c0,2.35-.39,4.53-3.52,4.53-1.77,0-2.56-1.09-2.56-2.37,0-1.72,1.1-2.62,4.07-2.62h2.01v.47Z"/>
  <path class="cls-12" d="M454.82,873.95v-11.68c0-4.63-2.54-6.54-5.64-6.54-2.91,0-4.44,1.25-5.48,2.71-.63-1.38-2.03-2.71-4.59-2.71s-4.04,1.21-4.95,2.54c-.03-.69-.12-1.69-.19-2.12h-4.71c.03,1.52.03,3.05.03,4.59v13.21h4.87v-9.94c0-3.05.95-4.28,2.95-4.28,2.1,0,2.56,1.49,2.56,3.34v10.89h4.83v-10.18c0-2.73.82-4.08,2.91-4.08s2.6,1.57,2.6,3.18v11.08h4.81Z"/>
  <rect class="cls-41" x="459.25" y="848.85" width="4.93" height="4.4"/>
  <rect class="cls-31" x="459.25" y="856.15" width="4.93" height="17.8"/>
  <path class="cls-37" d="M475.44,870.82c-1.84,0-3-.8-3.37-2.21h-4.84c.39,3.16,2.62,5.76,8.03,5.76s7.67-2.68,7.67-5.63c0-2.61-.84-4.65-6.78-6.03-2.89-.67-3.44-1.1-3.44-1.99,0-.8.53-1.52,2.16-1.52,2.32,0,2.76,1.24,2.91,1.9h4.69c-.15-2.41-1.98-5.36-7.38-5.36s-7.22,2.78-7.22,5.39.95,4.31,6.75,5.74c2.55.63,3.31,1.07,3.31,2.22,0,1.08-.66,1.73-2.48,1.73Z"/>
  <path class="cls-17" d="M488.21,877.94c2.27-2.82,3.4-6.62,3.76-10.02h-5.05c-.22,2.5-.54,5.44-2.53,10.02h3.82Z"/>
  <path class="cls-4" d="M515.44,848.85v8.59c-.4-.8-1.77-1.7-4.33-1.7-5.04,0-8.08,3.98-8.08,9.46s2.86,9.17,7.37,9.17c2.66,0,4.19-.87,5.05-2.27.03.41.12,1.33.22,1.86h4.74c-.03-1.63-.03-3.27-.03-4.89v-20.21h-4.93ZM511.85,870.42c-2.41,0-3.76-1.88-3.76-5.35s1.3-5.38,3.89-5.38c3.22,0,3.65,2.3,3.65,5.35,0,2.56-.39,5.38-3.78,5.38Z"/>
  <path class="cls-30" d="M540.48,864.61c0-4.44-2.08-8.87-8.19-8.87-5.72,0-8.58,3.99-8.58,9.57,0,4.67,2.54,9.05,8.41,9.05s7.54-3.58,8.17-5.76h-4.93c-.47,1.08-1.05,1.9-3.11,1.9-2.45,0-3.57-2.18-3.57-4.4h11.75c.06-.51.06-.9.06-1.5ZM528.77,863.08c.2-2.19,1.15-3.82,3.51-3.82s3.23,1.74,3.26,3.82h-6.77Z"/>
  <path class="cls-51" d="M550.87,870.82c-1.84,0-3-.8-3.37-2.21h-4.84c.39,3.16,2.62,5.76,8.03,5.76s7.67-2.68,7.67-5.63c0-2.61-.84-4.65-6.78-6.03-2.89-.67-3.44-1.1-3.44-1.99,0-.8.53-1.52,2.16-1.52,2.32,0,2.76,1.24,2.91,1.9h4.69c-.15-2.41-1.98-5.36-7.38-5.36s-7.22,2.78-7.22,5.39.95,4.31,6.75,5.74c2.55.63,3.31,1.07,3.31,2.22,0,1.08-.66,1.73-2.48,1.73Z"/>
  <path class="cls-2" d="M577.49,859.6c1.92,0,2.75,1.01,3.05,2.46h4.81c-.1-2.01-1.76-6.32-7.77-6.32-5.42,0-8.63,4.19-8.63,9.44s2.85,9.18,8.39,9.18,7.39-3.2,8-6.16h-4.84c-.44,1.34-1.35,2.34-3.04,2.34-2.16,0-3.51-1.73-3.51-5.52,0-3.45,1.28-5.43,3.53-5.43Z"/>
  <path class="cls-7" d="M596.59,855.74c-5.65,0-8.98,3.88-8.98,9.37s3.22,9.25,8.74,9.25,8.86-3.96,8.86-9.35-3.39-9.28-8.63-9.28ZM596.46,870.51c-2.37,0-3.85-2.03-3.85-5.46,0-3.76,1.49-5.46,3.78-5.46,2.45,0,3.82,1.76,3.82,5.49,0,3.39-1.34,5.43-3.75,5.43Z"/>
  <path class="cls-47" d="M616.36,859.6c1.92,0,2.75,1.01,3.05,2.46h4.81c-.1-2.01-1.77-6.32-7.77-6.32-5.42,0-8.63,4.19-8.63,9.44s2.85,9.18,8.39,9.18,7.39-3.2,8-6.16h-4.84c-.44,1.34-1.35,2.34-3.04,2.34-2.16,0-3.51-1.73-3.51-5.52,0-3.45,1.28-5.43,3.53-5.43Z"/>
  <path class="cls-25" d="M632.18,868.24l2.28-2.21,4.5,7.92h5.58l-6.79-11.08,6.2-6.72h-5.65c-2.45,2.97-4.82,5.73-6.13,7.51v-14.81h-4.93v25.1h4.93v-5.71Z"/>
  <path class="cls-18" d="M655.97,859.86v-3.7h-3.49v-4.82h-4.93v4.82h-2.75v3.7h2.75v9.36c0,3.11,1.15,4.97,4.62,4.97.99,0,2.33,0,3.31-.34v-3.39c-.37.05-.85.06-1.12.06-1.47,0-1.88-.53-1.88-1.88v-8.78h3.49Z"/>
  <path class="cls-45" d="M666.24,862.86c-5.22,0-8.47,1.87-8.47,5.93,0,2.76,1.81,5.58,6.1,5.58,3.15,0,4.36-1.15,5.01-2.15,0,.45.11,1.39.25,1.74h4.71c-.1-.43-.24-2.9-.24-4.6v-7.48c0-4.24-2.59-6.1-7.36-6.13-5.41-.03-7.37,2.53-7.63,5.69h4.69c.23-1.29.68-2.17,2.76-2.17,2.29,0,2.74,1.24,2.74,2.51v1.09h-2.54ZM668.79,865.85v.47c0,2.35-.39,4.53-3.52,4.53-1.77,0-2.56-1.09-2.56-2.37,0-1.72,1.1-2.62,4.07-2.62h2.01Z"/>
  <rect class="cls-56" x="678.06" y="848.85" width="4.93" height="4.4"/>
  <rect class="cls-29" x="678.06" y="856.15" width="4.93" height="17.8"/>
  <rect class="cls-14" x="687.41" y="848.85" width="4.93" height="25.1"/>
  <path class="cls-21" d="M703.6,870.82c-1.84,0-3-.8-3.37-2.21h-4.84c.39,3.16,2.62,5.76,8.03,5.76s7.67-2.68,7.67-5.63c0-2.61-.84-4.65-6.78-6.03-2.89-.67-3.44-1.1-3.44-1.99,0-.8.53-1.52,2.16-1.52,2.32,0,2.76,1.24,2.91,1.9h4.69c-.15-2.41-1.98-5.36-7.38-5.36s-7.22,2.78-7.22,5.39.95,4.31,6.75,5.74c2.55.63,3.31,1.07,3.31,2.22,0,1.08-.66,1.73-2.48,1.73Z"/>
  <path class="cls-57" d="M712.55,877.94h3.82c2.27-2.82,3.4-6.62,3.76-10.02h-5.05c-.22,2.5-.54,5.44-2.53,10.02Z"/>
  <path class="cls-13" d="M743.6,848.85v8.59c-.4-.8-1.77-1.7-4.33-1.7-5.04,0-8.08,3.98-8.08,9.46s2.86,9.17,7.36,9.17c2.66,0,4.19-.87,5.05-2.27.03.41.12,1.33.22,1.86h4.74c-.03-1.63-.03-3.27-.03-4.89v-20.21h-4.93ZM740.01,870.42c-2.41,0-3.76-1.88-3.76-5.35s1.3-5.38,3.89-5.38c3.22,0,3.65,2.3,3.65,5.35,0,2.56-.39,5.38-3.78,5.38Z"/>
  <path class="cls-24" d="M752.81,856.15v11.59c0,4.41,2.32,6.62,5.94,6.62,2.27,0,3.85-.68,4.9-2.47.03.62.06,1.58.13,2.05h4.83c-.03-1.59-.03-3.46-.03-5.17v-12.63h-4.93v9.47c0,3.53-.93,4.72-3.18,4.72-2.13,0-2.74-1.62-2.74-3.59v-10.61h-4.92Z"/>
  <path class="cls-49" d="M781.35,848.85v19.28c0,1.93,0,3.89-.03,5.82h4.71c.09-.45.19-1.1.19-1.69.86,1.29,2.03,2.1,4.68,2.1,5.12,0,7.74-4.53,7.74-9.63s-2.42-9-7.26-9c-2.89,0-4.36,1.16-5.09,2.3v-9.19h-4.93ZM789.87,859.69c2.66,0,3.76,2.18,3.76,5.14,0,3.37-1.31,5.62-3.82,5.62-2.87,0-3.76-2.3-3.76-5.3,0-3.63,1-5.46,3.81-5.46Z"/>
  <path class="cls-23" d="M801.19,865.11c0,5.31,3.22,9.25,8.74,9.25s8.86-3.96,8.86-9.35-3.39-9.28-8.63-9.28c-5.65,0-8.97,3.88-8.97,9.37ZM809.97,859.6c2.45,0,3.82,1.76,3.82,5.49,0,3.39-1.34,5.43-3.75,5.43s-3.85-2.03-3.85-5.46c0-3.76,1.49-5.46,3.78-5.46Z"/>
  <path class="cls-50" d="M838.2,873.95v-11.32c0-4.47-2.32-6.89-5.9-6.89-3.12,0-4.56,1.56-5.16,2.68-.03-.57-.09-1.81-.19-2.27h-4.77c.03,1.31.03,2.97.03,4.48v13.32h4.93v-9.92c0-3.14,1.2-4.31,3.29-4.31s2.84,1.45,2.84,3.45v10.78h4.93Z"/>
  <path class="cls-15" d="M858.57,873.95v-11.42c0-4.83-2.64-6.79-5.96-6.79-2.88,0-4.32,1.36-5.1,2.52v-9.4h-4.93v25.1h4.93v-9.44c0-2.75.54-4.78,3.28-4.78,2.07,0,2.89,1.23,2.89,3.54v10.68h4.9Z"/>
  <g>
    <path class="cls-22" d="M870.54,859.26c-2.36,0-3.31,1.63-3.51,3.82h6.77c-.03-2.07-.86-3.82-3.26-3.82Z"/>
    <path class="cls-48" d="M878.74,864.61c0-4.44-2.08-8.87-8.19-8.87-5.72,0-8.58,3.99-8.58,9.57,0,4.67,2.54,9.05,8.41,9.05s7.54-3.58,8.17-5.76h-4.93c-.47,1.08-1.05,1.9-3.11,1.9-2.45,0-3.57-2.18-3.57-4.4h11.75c.06-.51.06-.9.06-1.5ZM867.03,863.08c.2-2.19,1.15-3.82,3.51-3.82s3.23,1.74,3.26,3.82h-6.77Z"/>
  </g>
  <path class="cls-3" d="M882.01,856.15v11.59c0,4.41,2.32,6.62,5.94,6.62,2.27,0,3.85-.68,4.9-2.47.03.62.06,1.58.13,2.05h4.83c-.03-1.59-.03-3.46-.03-5.17v-12.63h-4.93v9.47c0,3.53-.93,4.72-3.18,4.72-2.13,0-2.74-1.62-2.74-3.59v-10.61h-4.92Z"/>
  <path class="cls-53" d="M907.15,873.95v-7.76c0-4.88,2.14-5.84,5.71-5.75v-4.7c-3.03.02-4.93,1.5-5.71,3.54,0-.96-.06-2.73-.13-3.12h-4.83c.03,1.49.03,3.06.03,4.83v12.97h4.93Z"/>
  <polygon class="cls-52" points="930.98 850.24 925.73 850.24 925.73 854.36 926.39 865.37 930.36 865.37 930.98 854.39 930.98 850.24"/>
  <rect class="cls-58" x="925.89" y="868.26" width="4.84" height="5.7"/>
</svg>